<?xml version="1.0" standalone="no"?>
<!DOCTYPE svg PUBLIC "-//W3C//DTD SVG 20010904//EN" "http://www.w3.org/TR/2001/REC-SVG-20010904/DTD/svg10.dtd">
<svg version="1.0" xmlns="http://www.w3.org/2000/svg" width="233.000000pt" height="67.000000pt" viewBox="0 0 233.000000 67.000000" preserveAspectRatio="xMidYMid meet">
  <g transform="translate(0.000000,67.000000) scale(0.100000,-0.100000)" fill="#000000" stroke="none">
    <path d="M1245 530 c-3 -5 -21 -10 -39 -10 -59 0 -74 -30 -102 -191 -14 -79 -30 -154 -36 -166 -16 -32 -6 -37 35 -20 41 18 48 36 74 190 16 100 20 110 45 123 29 15 48 42 48 68 0 18 -16 21 -25 6z"/>
    <path d="M1987 533 c-13 -12 -7 -51 9 -67 12 -13 38 -16 120 -16 86 0 104 -3 104 -15 0 -12 -17 -15 -94 -15 -103 0 -145 -10 -164 -40 -6 -11 -19 -64 -28 -120 -10 -55 -21 -100 -26 -100 -4 0 -8 -7 -8 -16 0 -13 6 -15 28 -9 43 11 60 33 72 94 6 31 13 68 16 84 5 26 7 27 73 27 92 0 130 14 147 56 19 46 18 88 -4 107 -15 14 -40 17 -120 17 -61 0 -102 4 -102 10 0 11 -13 13 -23 3z"/>
    <path d="M168 500 c-29 -22 -42 -57 -25 -67 6 -3 13 -1 15 5 2 8 33 12 93 12 74 0 89 -3 89 -15 0 -19 44 -65 62 -65 20 0 20 110 0 133 -24 27 -199 25 -234 -3z"/>
    <path d="M464 496 c3 -13 -5 -86 -19 -162 -30 -167 -30 -159 -5 -184 17 -17 33 -20 100 -20 102 0 144 16 158 62 6 18 21 92 33 163 13 72 26 132 31 133 16 7 8 32 -11 32 -29 0 -69 -37 -76 -71 -7 -31 -8 -31 -57 -27 -56 6 -68 -6 -50 -47 8 -18 22 -26 51 -31 28 -4 38 -10 34 -20 -6 -16 -69 -19 -78 -4 -10 16 23 12 -30 -10 -11 -35 20 -70 61 -70 24 0 34 -4 32 -12 -6 -18 -138 -24 -138 -7 0 7 10 68 22 136 20 119 20 124 3 143 -10 11 -29 20 -43 20 -20 0 -23 -4 -18 -24z"/>
    <path d="M826 498 c-22 -20 -29 -43 -51 -168 -14 -80 -31 -155 -37 -167 -16 -31 -6 -37 35 -20 41 18 49 37 72 177 24 142 13 130 115 130 59 0 90 -4 92 -12 7 -19 28 1 28 26 0 44 -28 56 -133 56 -85 0 -99 -2 -121 -22z"/>
    <path d="M1338 500 c-29 -22 -42 -57 -25 -67 6 -3 13 -1 15 5 2 8 33 12 93 12 74 0 89 -3 89 -15 0 -19 44 -65 62 -65 20 0 20 110 0 133 -24 27 -199 25 -234 -3z"/>
    <path d="M1665 498 c-21 -19 -28 -39 -40 -113 -9 -49 -22 -102 -31 -117 -15 -27 -14 -28 9 -28 47 0 74 34 86 107 19 111 11 103 111 103 59 0 90 -4 92 -12 7 -19 28 1 28 26 0 44 -28 56 -133 56 -85 0 -99 -3 -122 -22z"/>
    <path d="M117 414 c-4 -4 -4 -17 -1 -29 3 -12 -2 -59 -10 -105 -20 -104 -20 -106 4 -130 17 -17 33 -20 100 -20 97 0 143 17 157 57 l10 28 -105 -3 -105 -4 6 38 c21 123 21 140 -4 158 -25 17 -42 20 -52 10z"/>
    <path d="M273 410 c-29 -12 -50 -46 -58 -97 -4 -24 -11 -45 -16 -49 -16 -9 -10 -24 10 -24 49 0 73 31 86 108 4 23 11 42 16 42 5 0 9 7 9 15 0 17 -14 18 -47 5z"/>
    <path d="M1033 405 c-35 -15 -37 -19 -58 -135 -9 -47 -21 -95 -27 -107 -16 -31 -6 -37 34 -20 41 17 52 42 68 147 7 41 18 85 25 96 22 35 8 41 -42 19z"/>
    <path d="M1287 414 c-4 -4 -4 -17 -1 -29 3 -12 -2 -59 -10 -105 -20 -104 -20 -106 4 -130 17 -17 33 -20 100 -20 97 0 143 17 157 57 l10 28 -105 -3 -105 -4 6 38 c21 123 21 140 -4 158 -25 17 -42 20 -52 10z"/>
    <path d="M1443 410 c-29 -12 -50 -46 -58 -97 -4 -24 -11 -45 -16 -49 -16 -9 -10 -24 10 -24 49 0 73 31 86 108 4 23 11 42 16 42 5 0 9 7 9 15 0 17 -14 18 -47 5z"/>
    <path d="M1873 405 c-34 -15 -38 -23 -57 -122 l-12 -68 -107 0 c-104 0 -107 -1 -107 -22 0 -46 32 -63 119 -63 141 0 158 15 181 165 7 44 17 84 21 90 11 11 12 35 2 35 -5 -1 -22 -7 -40 -15z"/>
  </g>
</svg>